<mxfile host="app.diagrams.net" modified="2024-01-18T10:14:17.401Z" agent="Mozilla/5.0 (Macintosh; Intel Mac OS X 10_15_7) AppleWebKit/537.36 (KHTML, like Gecko) Chrome/120.0.0.0 Safari/537.36" etag="0YYiOR6ORAt6jMfHadzD" version="22.1.16" type="github">
  <diagram name="Page-1" id="74e2e168-ea6b-b213-b513-2b3c1d86103e">
    <mxGraphModel dx="3622" dy="1407" grid="1" gridSize="10" guides="1" tooltips="1" connect="1" arrows="1" fold="1" page="1" pageScale="1" pageWidth="1100" pageHeight="850" background="none" math="0" shadow="0">
      <root>
        <mxCell id="0" />
        <mxCell id="1" parent="0" />
        <mxCell id="ygaP20cfCetw5Ck_P4K3-5" value="EAM Process" style="swimlane;childLayout=stackLayout;resizeParent=1;resizeParentMax=0;horizontal=0;startSize=20;horizontalStack=0;html=1;fillColor=#A7B3CB;fontFamily=Carlito;fontSource=https%3A%2F%2Ffonts.googleapis.com%2Fcss%3Ffamily%3DCarlito;" vertex="1" parent="1">
          <mxGeometry x="-240" y="320" width="620" height="1060" as="geometry" />
        </mxCell>
        <mxCell id="ygaP20cfCetw5Ck_P4K3-6" value="Start Cycle" style="swimlane;startSize=20;horizontal=0;html=1;fillColor=#D3D9E5;swimlaneFillColor=#D3D9E5;fontFamily=Carlito;fontSource=https%3A%2F%2Ffonts.googleapis.com%2Fcss%3Ffamily%3DCarlito;" vertex="1" parent="ygaP20cfCetw5Ck_P4K3-5">
          <mxGeometry x="20" width="600" height="100" as="geometry" />
        </mxCell>
        <mxCell id="ygaP20cfCetw5Ck_P4K3-12" value="Start Cycle" style="strokeWidth=2;html=1;shape=mxgraph.flowchart.terminator;whiteSpace=wrap;fontFamily=Carlito;fontSource=https%3A%2F%2Ffonts.googleapis.com%2Fcss%3Ffamily%3DCarlito;" vertex="1" parent="ygaP20cfCetw5Ck_P4K3-6">
          <mxGeometry x="70" y="20" width="100" height="60" as="geometry" />
        </mxCell>
        <mxCell id="ygaP20cfCetw5Ck_P4K3-37" value="A" style="text;html=1;strokeColor=none;fillColor=none;align=center;verticalAlign=middle;whiteSpace=wrap;rounded=0;fontFamily=Carlito;fontSource=https%3A%2F%2Ffonts.googleapis.com%2Fcss%3Ffamily%3DCarlito;" vertex="1" parent="ygaP20cfCetw5Ck_P4K3-6">
          <mxGeometry x="255" y="35" width="30" height="30" as="geometry" />
        </mxCell>
        <mxCell id="ygaP20cfCetw5Ck_P4K3-7" value="Establish" style="swimlane;startSize=20;horizontal=0;html=1;fontFamily=Carlito;fontSource=https%3A%2F%2Ffonts.googleapis.com%2Fcss%3Ffamily%3DCarlito;" vertex="1" parent="ygaP20cfCetw5Ck_P4K3-5">
          <mxGeometry x="20" y="100" width="600" height="320" as="geometry" />
        </mxCell>
        <mxCell id="ygaP20cfCetw5Ck_P4K3-28" style="edgeStyle=orthogonalEdgeStyle;rounded=0;orthogonalLoop=1;jettySize=auto;html=1;exitX=0.5;exitY=1;exitDx=0;exitDy=0;entryX=0.5;entryY=0;entryDx=0;entryDy=0;fontFamily=Carlito;fontSource=https%3A%2F%2Ffonts.googleapis.com%2Fcss%3Ffamily%3DCarlito;" edge="1" parent="ygaP20cfCetw5Ck_P4K3-7" source="ygaP20cfCetw5Ck_P4K3-14" target="ygaP20cfCetw5Ck_P4K3-15">
          <mxGeometry relative="1" as="geometry" />
        </mxCell>
        <mxCell id="ygaP20cfCetw5Ck_P4K3-14" value="Identify business area stakeholders or their proxies" style="rounded=1;whiteSpace=wrap;html=1;absoluteArcSize=1;arcSize=14;strokeWidth=2;spacingLeft=3;spacing=2;spacingRight=3;fontFamily=Carlito;fontSource=https%3A%2F%2Ffonts.googleapis.com%2Fcss%3Ffamily%3DCarlito;" vertex="1" parent="ygaP20cfCetw5Ck_P4K3-7">
          <mxGeometry x="60" y="20" width="120" height="80" as="geometry" />
        </mxCell>
        <mxCell id="ygaP20cfCetw5Ck_P4K3-29" style="edgeStyle=orthogonalEdgeStyle;rounded=0;orthogonalLoop=1;jettySize=auto;html=1;exitX=0.5;exitY=1;exitDx=0;exitDy=0;entryX=0.5;entryY=0;entryDx=0;entryDy=0;fontFamily=Carlito;fontSource=https%3A%2F%2Ffonts.googleapis.com%2Fcss%3Ffamily%3DCarlito;" edge="1" parent="ygaP20cfCetw5Ck_P4K3-7" source="ygaP20cfCetw5Ck_P4K3-15" target="ygaP20cfCetw5Ck_P4K3-20">
          <mxGeometry relative="1" as="geometry" />
        </mxCell>
        <mxCell id="ygaP20cfCetw5Ck_P4K3-15" value="Identify EA Delegates" style="rounded=1;whiteSpace=wrap;html=1;absoluteArcSize=1;arcSize=14;strokeWidth=2;spacingLeft=3;spacing=2;spacingRight=3;fontFamily=Carlito;fontSource=https%3A%2F%2Ffonts.googleapis.com%2Fcss%3Ffamily%3DCarlito;" vertex="1" parent="ygaP20cfCetw5Ck_P4K3-7">
          <mxGeometry x="60" y="120" width="120" height="80" as="geometry" />
        </mxCell>
        <mxCell id="ygaP20cfCetw5Ck_P4K3-20" value="Provide briefing/training for process participants" style="rounded=1;whiteSpace=wrap;html=1;absoluteArcSize=1;arcSize=14;strokeWidth=2;spacingLeft=3;spacing=2;spacingRight=3;fontFamily=Carlito;fontSource=https%3A%2F%2Ffonts.googleapis.com%2Fcss%3Ffamily%3DCarlito;" vertex="1" parent="ygaP20cfCetw5Ck_P4K3-7">
          <mxGeometry x="60" y="220" width="120" height="80" as="geometry" />
        </mxCell>
        <mxCell id="ygaP20cfCetw5Ck_P4K3-8" value="Run" style="swimlane;startSize=20;horizontal=0;html=1;fillColor=#D3D9E5;swimlaneFillColor=#D3D9E5;fontFamily=Carlito;fontSource=https%3A%2F%2Ffonts.googleapis.com%2Fcss%3Ffamily%3DCarlito;" vertex="1" parent="ygaP20cfCetw5Ck_P4K3-5">
          <mxGeometry x="20" y="420" width="600" height="420" as="geometry">
            <mxRectangle x="20" y="240" width="460" height="30" as="alternateBounds" />
          </mxGeometry>
        </mxCell>
        <mxCell id="ygaP20cfCetw5Ck_P4K3-31" style="edgeStyle=orthogonalEdgeStyle;rounded=0;orthogonalLoop=1;jettySize=auto;html=1;exitX=0.5;exitY=1;exitDx=0;exitDy=0;entryX=0.5;entryY=0;entryDx=0;entryDy=0;fontFamily=Carlito;fontSource=https%3A%2F%2Ffonts.googleapis.com%2Fcss%3Ffamily%3DCarlito;" edge="1" parent="ygaP20cfCetw5Ck_P4K3-8" source="ygaP20cfCetw5Ck_P4K3-21" target="ygaP20cfCetw5Ck_P4K3-23">
          <mxGeometry relative="1" as="geometry" />
        </mxCell>
        <mxCell id="ygaP20cfCetw5Ck_P4K3-21" value="Monitor meeting schedule, occurences and attendances" style="rounded=1;whiteSpace=wrap;html=1;absoluteArcSize=1;arcSize=14;strokeWidth=2;spacingLeft=3;spacing=2;spacingRight=3;fontFamily=Carlito;fontSource=https%3A%2F%2Ffonts.googleapis.com%2Fcss%3Ffamily%3DCarlito;" vertex="1" parent="ygaP20cfCetw5Ck_P4K3-8">
          <mxGeometry x="60" y="20" width="120" height="80" as="geometry" />
        </mxCell>
        <mxCell id="ygaP20cfCetw5Ck_P4K3-33" style="edgeStyle=orthogonalEdgeStyle;rounded=0;orthogonalLoop=1;jettySize=auto;html=1;exitX=0.5;exitY=1;exitDx=0;exitDy=0;entryX=0.5;entryY=0;entryDx=0;entryDy=0;fontFamily=Carlito;fontSource=https%3A%2F%2Ffonts.googleapis.com%2Fcss%3Ffamily%3DCarlito;" edge="1" parent="ygaP20cfCetw5Ck_P4K3-8" source="ygaP20cfCetw5Ck_P4K3-22" target="ygaP20cfCetw5Ck_P4K3-24">
          <mxGeometry relative="1" as="geometry" />
        </mxCell>
        <mxCell id="ygaP20cfCetw5Ck_P4K3-22" value="Ensure sub-process outputs are fed to other sub-processes as appropriate" style="rounded=1;whiteSpace=wrap;html=1;absoluteArcSize=1;arcSize=14;strokeWidth=2;spacingLeft=3;spacing=2;spacingRight=3;fontFamily=Carlito;fontSource=https%3A%2F%2Ffonts.googleapis.com%2Fcss%3Ffamily%3DCarlito;" vertex="1" parent="ygaP20cfCetw5Ck_P4K3-8">
          <mxGeometry x="60" y="220" width="120" height="80" as="geometry" />
        </mxCell>
        <mxCell id="ygaP20cfCetw5Ck_P4K3-32" style="edgeStyle=orthogonalEdgeStyle;rounded=0;orthogonalLoop=1;jettySize=auto;html=1;exitX=0.5;exitY=1;exitDx=0;exitDy=0;entryX=0.5;entryY=0;entryDx=0;entryDy=0;fontFamily=Carlito;fontSource=https%3A%2F%2Ffonts.googleapis.com%2Fcss%3Ffamily%3DCarlito;" edge="1" parent="ygaP20cfCetw5Ck_P4K3-8" source="ygaP20cfCetw5Ck_P4K3-23" target="ygaP20cfCetw5Ck_P4K3-22">
          <mxGeometry relative="1" as="geometry" />
        </mxCell>
        <mxCell id="ygaP20cfCetw5Ck_P4K3-23" value="Capture outputs of meetings, creating or updating EA Artifacts as needed" style="rounded=1;whiteSpace=wrap;html=1;absoluteArcSize=1;arcSize=14;strokeWidth=2;spacingLeft=3;spacing=2;spacingRight=3;fontFamily=Carlito;fontSource=https%3A%2F%2Ffonts.googleapis.com%2Fcss%3Ffamily%3DCarlito;" vertex="1" parent="ygaP20cfCetw5Ck_P4K3-8">
          <mxGeometry x="60" y="120" width="120" height="80" as="geometry" />
        </mxCell>
        <mxCell id="ygaP20cfCetw5Ck_P4K3-36" style="edgeStyle=orthogonalEdgeStyle;rounded=0;orthogonalLoop=1;jettySize=auto;html=1;exitX=0.5;exitY=1;exitDx=0;exitDy=0;entryX=0.5;entryY=0;entryDx=0;entryDy=0;fontFamily=Carlito;fontSource=https%3A%2F%2Ffonts.googleapis.com%2Fcss%3Ffamily%3DCarlito;" edge="1" parent="ygaP20cfCetw5Ck_P4K3-8" source="ygaP20cfCetw5Ck_P4K3-24" target="ygaP20cfCetw5Ck_P4K3-21">
          <mxGeometry relative="1" as="geometry">
            <Array as="points">
              <mxPoint x="120" y="410" />
              <mxPoint x="200" y="410" />
              <mxPoint x="200" y="10" />
              <mxPoint x="120" y="10" />
            </Array>
          </mxGeometry>
        </mxCell>
        <mxCell id="ygaP20cfCetw5Ck_P4K3-24" value="Engage with EA Delegates and stakeholders to aid communications" style="rounded=1;whiteSpace=wrap;html=1;absoluteArcSize=1;arcSize=14;strokeWidth=2;spacingLeft=3;spacing=2;spacingRight=3;fontFamily=Carlito;fontSource=https%3A%2F%2Ffonts.googleapis.com%2Fcss%3Ffamily%3DCarlito;" vertex="1" parent="ygaP20cfCetw5Ck_P4K3-8">
          <mxGeometry x="60" y="320" width="120" height="80" as="geometry" />
        </mxCell>
        <mxCell id="ygaP20cfCetw5Ck_P4K3-83" value="I" style="text;html=1;strokeColor=none;fillColor=none;align=center;verticalAlign=middle;whiteSpace=wrap;rounded=0;fontFamily=Carlito;fontSource=https%3A%2F%2Ffonts.googleapis.com%2Fcss%3Ffamily%3DCarlito;" vertex="1" parent="ygaP20cfCetw5Ck_P4K3-8">
          <mxGeometry x="555" y="45" width="30" height="30" as="geometry" />
        </mxCell>
        <mxCell id="ygaP20cfCetw5Ck_P4K3-86" value="C" style="text;html=1;strokeColor=none;fillColor=none;align=center;verticalAlign=middle;whiteSpace=wrap;rounded=0;fontFamily=Carlito;fontSource=https%3A%2F%2Ffonts.googleapis.com%2Fcss%3Ffamily%3DCarlito;" vertex="1" parent="ygaP20cfCetw5Ck_P4K3-8">
          <mxGeometry x="375" y="245" width="30" height="30" as="geometry" />
        </mxCell>
        <mxCell id="ygaP20cfCetw5Ck_P4K3-87" value="I" style="text;html=1;strokeColor=none;fillColor=none;align=center;verticalAlign=middle;whiteSpace=wrap;rounded=0;fontFamily=Carlito;fontSource=https%3A%2F%2Ffonts.googleapis.com%2Fcss%3Ffamily%3DCarlito;" vertex="1" parent="ygaP20cfCetw5Ck_P4K3-8">
          <mxGeometry x="435" y="245" width="30" height="30" as="geometry" />
        </mxCell>
        <mxCell id="ygaP20cfCetw5Ck_P4K3-88" value="I" style="text;html=1;strokeColor=none;fillColor=none;align=center;verticalAlign=middle;whiteSpace=wrap;rounded=0;fontFamily=Carlito;fontSource=https%3A%2F%2Ffonts.googleapis.com%2Fcss%3Ffamily%3DCarlito;" vertex="1" parent="ygaP20cfCetw5Ck_P4K3-8">
          <mxGeometry x="495" y="245" width="30" height="30" as="geometry" />
        </mxCell>
        <mxCell id="ygaP20cfCetw5Ck_P4K3-89" value="I" style="text;html=1;strokeColor=none;fillColor=none;align=center;verticalAlign=middle;whiteSpace=wrap;rounded=0;fontFamily=Carlito;fontSource=https%3A%2F%2Ffonts.googleapis.com%2Fcss%3Ffamily%3DCarlito;" vertex="1" parent="ygaP20cfCetw5Ck_P4K3-8">
          <mxGeometry x="555" y="245" width="30" height="30" as="geometry" />
        </mxCell>
        <mxCell id="ygaP20cfCetw5Ck_P4K3-90" value="C" style="text;html=1;strokeColor=none;fillColor=none;align=center;verticalAlign=middle;whiteSpace=wrap;rounded=0;fontFamily=Carlito;fontSource=https%3A%2F%2Ffonts.googleapis.com%2Fcss%3Ffamily%3DCarlito;" vertex="1" parent="ygaP20cfCetw5Ck_P4K3-8">
          <mxGeometry x="375" y="345" width="30" height="30" as="geometry" />
        </mxCell>
        <mxCell id="ygaP20cfCetw5Ck_P4K3-91" value="R" style="text;html=1;strokeColor=none;fillColor=none;align=center;verticalAlign=middle;whiteSpace=wrap;rounded=0;fontFamily=Carlito;fontSource=https%3A%2F%2Ffonts.googleapis.com%2Fcss%3Ffamily%3DCarlito;" vertex="1" parent="ygaP20cfCetw5Ck_P4K3-8">
          <mxGeometry x="435" y="345" width="30" height="30" as="geometry" />
        </mxCell>
        <mxCell id="ygaP20cfCetw5Ck_P4K3-92" value="C" style="text;html=1;strokeColor=none;fillColor=none;align=center;verticalAlign=middle;whiteSpace=wrap;rounded=0;fontFamily=Carlito;fontSource=https%3A%2F%2Ffonts.googleapis.com%2Fcss%3Ffamily%3DCarlito;" vertex="1" parent="ygaP20cfCetw5Ck_P4K3-8">
          <mxGeometry x="495" y="345" width="30" height="30" as="geometry" />
        </mxCell>
        <mxCell id="ygaP20cfCetw5Ck_P4K3-93" value="I" style="text;html=1;strokeColor=none;fillColor=none;align=center;verticalAlign=middle;whiteSpace=wrap;rounded=0;fontFamily=Carlito;fontSource=https%3A%2F%2Ffonts.googleapis.com%2Fcss%3Ffamily%3DCarlito;" vertex="1" parent="ygaP20cfCetw5Ck_P4K3-8">
          <mxGeometry x="555" y="345" width="30" height="30" as="geometry" />
        </mxCell>
        <mxCell id="ygaP20cfCetw5Ck_P4K3-10" value="Review" style="swimlane;startSize=20;horizontal=0;html=1;fontFamily=Carlito;fontSource=https%3A%2F%2Ffonts.googleapis.com%2Fcss%3Ffamily%3DCarlito;" vertex="1" parent="ygaP20cfCetw5Ck_P4K3-5">
          <mxGeometry x="20" y="840" width="600" height="120" as="geometry">
            <mxRectangle x="20" y="240" width="460" height="30" as="alternateBounds" />
          </mxGeometry>
        </mxCell>
        <mxCell id="ygaP20cfCetw5Ck_P4K3-25" value="Produce annual report of state of EA and EAM" style="rounded=1;whiteSpace=wrap;html=1;absoluteArcSize=1;arcSize=14;strokeWidth=2;spacingLeft=3;spacing=2;spacingRight=3;fontFamily=Carlito;fontSource=https%3A%2F%2Ffonts.googleapis.com%2Fcss%3Ffamily%3DCarlito;" vertex="1" parent="ygaP20cfCetw5Ck_P4K3-10">
          <mxGeometry x="60" y="20" width="120" height="80" as="geometry" />
        </mxCell>
        <mxCell id="ygaP20cfCetw5Ck_P4K3-9" value="End Cycle" style="swimlane;startSize=20;horizontal=0;html=1;fillColor=#D3D9E5;swimlaneFillColor=#D3D9E5;fontFamily=Carlito;fontSource=https%3A%2F%2Ffonts.googleapis.com%2Fcss%3Ffamily%3DCarlito;" vertex="1" parent="ygaP20cfCetw5Ck_P4K3-5">
          <mxGeometry x="20" y="960" width="600" height="100" as="geometry">
            <mxRectangle x="20" y="240" width="460" height="30" as="alternateBounds" />
          </mxGeometry>
        </mxCell>
        <mxCell id="ygaP20cfCetw5Ck_P4K3-26" value="End Cycle" style="strokeWidth=2;html=1;shape=mxgraph.flowchart.terminator;whiteSpace=wrap;fontFamily=Carlito;fontSource=https%3A%2F%2Ffonts.googleapis.com%2Fcss%3Ffamily%3DCarlito;" vertex="1" parent="ygaP20cfCetw5Ck_P4K3-9">
          <mxGeometry x="70" y="20" width="100" height="60" as="geometry" />
        </mxCell>
        <mxCell id="ygaP20cfCetw5Ck_P4K3-102" value="R" style="text;html=1;strokeColor=none;fillColor=none;align=center;verticalAlign=middle;whiteSpace=wrap;rounded=0;fontFamily=Carlito;fontSource=https%3A%2F%2Ffonts.googleapis.com%2Fcss%3Ffamily%3DCarlito;" vertex="1" parent="ygaP20cfCetw5Ck_P4K3-9">
          <mxGeometry x="315" y="35" width="30" height="30" as="geometry" />
        </mxCell>
        <mxCell id="ygaP20cfCetw5Ck_P4K3-103" value="I" style="text;html=1;strokeColor=none;fillColor=none;align=center;verticalAlign=middle;whiteSpace=wrap;rounded=0;fontFamily=Carlito;fontSource=https%3A%2F%2Ffonts.googleapis.com%2Fcss%3Ffamily%3DCarlito;" vertex="1" parent="ygaP20cfCetw5Ck_P4K3-9">
          <mxGeometry x="375" y="35" width="30" height="30" as="geometry" />
        </mxCell>
        <mxCell id="ygaP20cfCetw5Ck_P4K3-104" value="I" style="text;html=1;strokeColor=none;fillColor=none;align=center;verticalAlign=middle;whiteSpace=wrap;rounded=0;fontFamily=Carlito;fontSource=https%3A%2F%2Ffonts.googleapis.com%2Fcss%3Ffamily%3DCarlito;" vertex="1" parent="ygaP20cfCetw5Ck_P4K3-9">
          <mxGeometry x="435" y="35" width="30" height="30" as="geometry" />
        </mxCell>
        <mxCell id="ygaP20cfCetw5Ck_P4K3-105" value="I" style="text;html=1;strokeColor=none;fillColor=none;align=center;verticalAlign=middle;whiteSpace=wrap;rounded=0;fontFamily=Carlito;fontSource=https%3A%2F%2Ffonts.googleapis.com%2Fcss%3Ffamily%3DCarlito;" vertex="1" parent="ygaP20cfCetw5Ck_P4K3-9">
          <mxGeometry x="495" y="35" width="30" height="30" as="geometry" />
        </mxCell>
        <mxCell id="ygaP20cfCetw5Ck_P4K3-27" value="" style="edgeStyle=orthogonalEdgeStyle;rounded=0;orthogonalLoop=1;jettySize=auto;html=1;fontFamily=Carlito;fontSource=https%3A%2F%2Ffonts.googleapis.com%2Fcss%3Ffamily%3DCarlito;" edge="1" parent="ygaP20cfCetw5Ck_P4K3-5" source="ygaP20cfCetw5Ck_P4K3-12" target="ygaP20cfCetw5Ck_P4K3-14">
          <mxGeometry relative="1" as="geometry" />
        </mxCell>
        <mxCell id="ygaP20cfCetw5Ck_P4K3-30" style="edgeStyle=orthogonalEdgeStyle;rounded=0;orthogonalLoop=1;jettySize=auto;html=1;exitX=0.5;exitY=1;exitDx=0;exitDy=0;entryX=0.5;entryY=0;entryDx=0;entryDy=0;fontFamily=Carlito;fontSource=https%3A%2F%2Ffonts.googleapis.com%2Fcss%3Ffamily%3DCarlito;" edge="1" parent="ygaP20cfCetw5Ck_P4K3-5" source="ygaP20cfCetw5Ck_P4K3-20" target="ygaP20cfCetw5Ck_P4K3-21">
          <mxGeometry relative="1" as="geometry" />
        </mxCell>
        <mxCell id="ygaP20cfCetw5Ck_P4K3-34" style="edgeStyle=orthogonalEdgeStyle;rounded=0;orthogonalLoop=1;jettySize=auto;html=1;exitX=0.5;exitY=1;exitDx=0;exitDy=0;entryX=0.5;entryY=0;entryDx=0;entryDy=0;fontFamily=Carlito;fontSource=https%3A%2F%2Ffonts.googleapis.com%2Fcss%3Ffamily%3DCarlito;" edge="1" parent="ygaP20cfCetw5Ck_P4K3-5" source="ygaP20cfCetw5Ck_P4K3-24" target="ygaP20cfCetw5Ck_P4K3-25">
          <mxGeometry relative="1" as="geometry" />
        </mxCell>
        <mxCell id="ygaP20cfCetw5Ck_P4K3-35" style="edgeStyle=orthogonalEdgeStyle;rounded=0;orthogonalLoop=1;jettySize=auto;html=1;exitX=0.5;exitY=1;exitDx=0;exitDy=0;entryX=0.5;entryY=0;entryDx=0;entryDy=0;entryPerimeter=0;fontFamily=Carlito;fontSource=https%3A%2F%2Ffonts.googleapis.com%2Fcss%3Ffamily%3DCarlito;" edge="1" parent="ygaP20cfCetw5Ck_P4K3-5" source="ygaP20cfCetw5Ck_P4K3-25" target="ygaP20cfCetw5Ck_P4K3-26">
          <mxGeometry relative="1" as="geometry" />
        </mxCell>
        <mxCell id="ygaP20cfCetw5Ck_P4K3-1" value="RACI Matrix" style="swimlane;childLayout=stackLayout;resizeParent=1;resizeParentMax=0;startSize=20;html=1;fillColor=#A7B3CB;fontFamily=Carlito;fontSource=https%3A%2F%2Ffonts.googleapis.com%2Fcss%3Ffamily%3DCarlito;fontStyle=1" vertex="1" parent="1">
          <mxGeometry x="20" y="280" width="360" height="1100" as="geometry" />
        </mxCell>
        <mxCell id="ygaP20cfCetw5Ck_P4K3-2" value="CTO" style="swimlane;startSize=20;html=1;fontFamily=Carlito;fontSource=https%3A%2F%2Ffonts.googleapis.com%2Fcss%3Ffamily%3DCarlito;" vertex="1" parent="ygaP20cfCetw5Ck_P4K3-1">
          <mxGeometry y="20" width="60" height="1080" as="geometry" />
        </mxCell>
        <mxCell id="ygaP20cfCetw5Ck_P4K3-39" value="A" style="text;html=1;strokeColor=none;fillColor=none;align=center;verticalAlign=middle;whiteSpace=wrap;rounded=0;fontFamily=Carlito;fontSource=https%3A%2F%2Ffonts.googleapis.com%2Fcss%3Ffamily%3DCarlito;" vertex="1" parent="ygaP20cfCetw5Ck_P4K3-2">
          <mxGeometry x="15" y="165" width="30" height="30" as="geometry" />
        </mxCell>
        <mxCell id="ygaP20cfCetw5Ck_P4K3-40" value="A" style="text;html=1;strokeColor=none;fillColor=none;align=center;verticalAlign=middle;whiteSpace=wrap;rounded=0;fontFamily=Carlito;fontSource=https%3A%2F%2Ffonts.googleapis.com%2Fcss%3Ffamily%3DCarlito;" vertex="1" parent="ygaP20cfCetw5Ck_P4K3-2">
          <mxGeometry x="15" y="265" width="30" height="30" as="geometry" />
        </mxCell>
        <mxCell id="ygaP20cfCetw5Ck_P4K3-47" value="A" style="text;html=1;strokeColor=none;fillColor=none;align=center;verticalAlign=middle;whiteSpace=wrap;rounded=0;fontFamily=Carlito;fontSource=https%3A%2F%2Ffonts.googleapis.com%2Fcss%3Ffamily%3DCarlito;" vertex="1" parent="ygaP20cfCetw5Ck_P4K3-2">
          <mxGeometry x="15" y="1015" width="30" height="30" as="geometry" />
        </mxCell>
        <mxCell id="ygaP20cfCetw5Ck_P4K3-55" value="I" style="text;html=1;strokeColor=none;fillColor=none;align=center;verticalAlign=middle;whiteSpace=wrap;rounded=0;fontFamily=Carlito;fontSource=https%3A%2F%2Ffonts.googleapis.com%2Fcss%3Ffamily%3DCarlito;" vertex="1" parent="ygaP20cfCetw5Ck_P4K3-2">
          <mxGeometry x="15" y="365" width="30" height="30" as="geometry" />
        </mxCell>
        <mxCell id="ygaP20cfCetw5Ck_P4K3-57" value="I" style="text;html=1;strokeColor=none;fillColor=none;align=center;verticalAlign=middle;whiteSpace=wrap;rounded=0;fontFamily=Carlito;fontSource=https%3A%2F%2Ffonts.googleapis.com%2Fcss%3Ffamily%3DCarlito;" vertex="1" parent="ygaP20cfCetw5Ck_P4K3-2">
          <mxGeometry x="15" y="485" width="30" height="30" as="geometry" />
        </mxCell>
        <mxCell id="ygaP20cfCetw5Ck_P4K3-58" value="I" style="text;html=1;strokeColor=none;fillColor=none;align=center;verticalAlign=middle;whiteSpace=wrap;rounded=0;fontFamily=Carlito;fontSource=https%3A%2F%2Ffonts.googleapis.com%2Fcss%3Ffamily%3DCarlito;" vertex="1" parent="ygaP20cfCetw5Ck_P4K3-2">
          <mxGeometry x="15" y="585" width="30" height="30" as="geometry" />
        </mxCell>
        <mxCell id="ygaP20cfCetw5Ck_P4K3-59" value="I" style="text;html=1;strokeColor=none;fillColor=none;align=center;verticalAlign=middle;whiteSpace=wrap;rounded=0;fontFamily=Carlito;fontSource=https%3A%2F%2Ffonts.googleapis.com%2Fcss%3Ffamily%3DCarlito;" vertex="1" parent="ygaP20cfCetw5Ck_P4K3-2">
          <mxGeometry x="15" y="685" width="30" height="30" as="geometry" />
        </mxCell>
        <mxCell id="ygaP20cfCetw5Ck_P4K3-60" value="I" style="text;html=1;strokeColor=none;fillColor=none;align=center;verticalAlign=middle;whiteSpace=wrap;rounded=0;fontFamily=Carlito;fontSource=https%3A%2F%2Ffonts.googleapis.com%2Fcss%3Ffamily%3DCarlito;" vertex="1" parent="ygaP20cfCetw5Ck_P4K3-2">
          <mxGeometry x="15" y="785" width="30" height="30" as="geometry" />
        </mxCell>
        <mxCell id="ygaP20cfCetw5Ck_P4K3-61" value="I" style="text;html=1;strokeColor=none;fillColor=none;align=center;verticalAlign=middle;whiteSpace=wrap;rounded=0;fontFamily=Carlito;fontSource=https%3A%2F%2Ffonts.googleapis.com%2Fcss%3Ffamily%3DCarlito;" vertex="1" parent="ygaP20cfCetw5Ck_P4K3-2">
          <mxGeometry x="15" y="905" width="30" height="30" as="geometry" />
        </mxCell>
        <mxCell id="ygaP20cfCetw5Ck_P4K3-3" value="EA" style="swimlane;startSize=20;html=1;fontFamily=Carlito;fontSource=https%3A%2F%2Ffonts.googleapis.com%2Fcss%3Ffamily%3DCarlito;" vertex="1" parent="ygaP20cfCetw5Ck_P4K3-1">
          <mxGeometry x="60" y="20" width="60" height="1080" as="geometry" />
        </mxCell>
        <mxCell id="ygaP20cfCetw5Ck_P4K3-41" value="A" style="text;html=1;strokeColor=none;fillColor=none;align=center;verticalAlign=middle;whiteSpace=wrap;rounded=0;fontFamily=Carlito;fontSource=https%3A%2F%2Ffonts.googleapis.com%2Fcss%3Ffamily%3DCarlito;" vertex="1" parent="ygaP20cfCetw5Ck_P4K3-3">
          <mxGeometry x="15" y="365" width="30" height="30" as="geometry" />
        </mxCell>
        <mxCell id="ygaP20cfCetw5Ck_P4K3-42" value="A" style="text;html=1;strokeColor=none;fillColor=none;align=center;verticalAlign=middle;whiteSpace=wrap;rounded=0;fontFamily=Carlito;fontSource=https%3A%2F%2Ffonts.googleapis.com%2Fcss%3Ffamily%3DCarlito;" vertex="1" parent="ygaP20cfCetw5Ck_P4K3-3">
          <mxGeometry x="15" y="485" width="30" height="30" as="geometry" />
        </mxCell>
        <mxCell id="ygaP20cfCetw5Ck_P4K3-43" value="A" style="text;html=1;strokeColor=none;fillColor=none;align=center;verticalAlign=middle;whiteSpace=wrap;rounded=0;fontFamily=Carlito;fontSource=https%3A%2F%2Ffonts.googleapis.com%2Fcss%3Ffamily%3DCarlito;" vertex="1" parent="ygaP20cfCetw5Ck_P4K3-3">
          <mxGeometry x="15" y="585" width="30" height="30" as="geometry" />
        </mxCell>
        <mxCell id="ygaP20cfCetw5Ck_P4K3-44" value="A" style="text;html=1;strokeColor=none;fillColor=none;align=center;verticalAlign=middle;whiteSpace=wrap;rounded=0;fontFamily=Carlito;fontSource=https%3A%2F%2Ffonts.googleapis.com%2Fcss%3Ffamily%3DCarlito;" vertex="1" parent="ygaP20cfCetw5Ck_P4K3-3">
          <mxGeometry x="15" y="685" width="30" height="30" as="geometry" />
        </mxCell>
        <mxCell id="ygaP20cfCetw5Ck_P4K3-45" value="A" style="text;html=1;strokeColor=none;fillColor=none;align=center;verticalAlign=middle;whiteSpace=wrap;rounded=0;fontFamily=Carlito;fontSource=https%3A%2F%2Ffonts.googleapis.com%2Fcss%3Ffamily%3DCarlito;" vertex="1" parent="ygaP20cfCetw5Ck_P4K3-3">
          <mxGeometry x="15" y="785" width="30" height="30" as="geometry" />
        </mxCell>
        <mxCell id="ygaP20cfCetw5Ck_P4K3-46" value="A" style="text;html=1;strokeColor=none;fillColor=none;align=center;verticalAlign=middle;whiteSpace=wrap;rounded=0;fontFamily=Carlito;fontSource=https%3A%2F%2Ffonts.googleapis.com%2Fcss%3Ffamily%3DCarlito;" vertex="1" parent="ygaP20cfCetw5Ck_P4K3-3">
          <mxGeometry x="15" y="905" width="30" height="30" as="geometry" />
        </mxCell>
        <mxCell id="ygaP20cfCetw5Ck_P4K3-48" value="R" style="text;html=1;strokeColor=none;fillColor=none;align=center;verticalAlign=middle;whiteSpace=wrap;rounded=0;fontFamily=Carlito;fontSource=https%3A%2F%2Ffonts.googleapis.com%2Fcss%3Ffamily%3DCarlito;" vertex="1" parent="ygaP20cfCetw5Ck_P4K3-3">
          <mxGeometry x="15" y="55" width="30" height="30" as="geometry" />
        </mxCell>
        <mxCell id="ygaP20cfCetw5Ck_P4K3-49" value="R" style="text;html=1;strokeColor=none;fillColor=none;align=center;verticalAlign=middle;whiteSpace=wrap;rounded=0;fontFamily=Carlito;fontSource=https%3A%2F%2Ffonts.googleapis.com%2Fcss%3Ffamily%3DCarlito;" vertex="1" parent="ygaP20cfCetw5Ck_P4K3-3">
          <mxGeometry x="15" y="165" width="30" height="30" as="geometry" />
        </mxCell>
        <mxCell id="ygaP20cfCetw5Ck_P4K3-50" value="R" style="text;html=1;strokeColor=none;fillColor=none;align=center;verticalAlign=middle;whiteSpace=wrap;rounded=0;fontFamily=Carlito;fontSource=https%3A%2F%2Ffonts.googleapis.com%2Fcss%3Ffamily%3DCarlito;" vertex="1" parent="ygaP20cfCetw5Ck_P4K3-3">
          <mxGeometry x="15" y="265" width="30" height="30" as="geometry" />
        </mxCell>
        <mxCell id="ygaP20cfCetw5Ck_P4K3-4" value="EAD" style="swimlane;startSize=20;html=1;fontFamily=Carlito;fontSource=https%3A%2F%2Ffonts.googleapis.com%2Fcss%3Ffamily%3DCarlito;" vertex="1" parent="ygaP20cfCetw5Ck_P4K3-1">
          <mxGeometry x="120" y="20" width="60" height="1080" as="geometry" />
        </mxCell>
        <mxCell id="ygaP20cfCetw5Ck_P4K3-51" value="R" style="text;html=1;strokeColor=none;fillColor=none;align=center;verticalAlign=middle;whiteSpace=wrap;rounded=0;fontFamily=Carlito;fontSource=https%3A%2F%2Ffonts.googleapis.com%2Fcss%3Ffamily%3DCarlito;" vertex="1" parent="ygaP20cfCetw5Ck_P4K3-4">
          <mxGeometry x="15" y="485" width="30" height="30" as="geometry" />
        </mxCell>
        <mxCell id="ygaP20cfCetw5Ck_P4K3-53" value="R" style="text;html=1;strokeColor=none;fillColor=none;align=center;verticalAlign=middle;whiteSpace=wrap;rounded=0;fontFamily=Carlito;fontSource=https%3A%2F%2Ffonts.googleapis.com%2Fcss%3Ffamily%3DCarlito;" vertex="1" parent="ygaP20cfCetw5Ck_P4K3-4">
          <mxGeometry x="15" y="585" width="30" height="30" as="geometry" />
        </mxCell>
        <mxCell id="ygaP20cfCetw5Ck_P4K3-65" value="C" style="text;html=1;strokeColor=none;fillColor=none;align=center;verticalAlign=middle;whiteSpace=wrap;rounded=0;fontFamily=Carlito;fontSource=https%3A%2F%2Ffonts.googleapis.com%2Fcss%3Ffamily%3DCarlito;" vertex="1" parent="ygaP20cfCetw5Ck_P4K3-4">
          <mxGeometry x="15" y="265" width="30" height="30" as="geometry" />
        </mxCell>
        <mxCell id="ygaP20cfCetw5Ck_P4K3-66" value="C" style="text;html=1;strokeColor=none;fillColor=none;align=center;verticalAlign=middle;whiteSpace=wrap;rounded=0;fontFamily=Carlito;fontSource=https%3A%2F%2Ffonts.googleapis.com%2Fcss%3Ffamily%3DCarlito;" vertex="1" parent="ygaP20cfCetw5Ck_P4K3-4">
          <mxGeometry x="15" y="365" width="30" height="30" as="geometry" />
        </mxCell>
        <mxCell id="ygaP20cfCetw5Ck_P4K3-69" value="I" style="text;html=1;strokeColor=none;fillColor=none;align=center;verticalAlign=middle;whiteSpace=wrap;rounded=0;fontFamily=Carlito;fontSource=https%3A%2F%2Ffonts.googleapis.com%2Fcss%3Ffamily%3DCarlito;" vertex="1" parent="ygaP20cfCetw5Ck_P4K3-4">
          <mxGeometry x="15" y="55" width="30" height="30" as="geometry" />
        </mxCell>
        <mxCell id="ygaP20cfCetw5Ck_P4K3-75" value="I" style="text;html=1;strokeColor=none;fillColor=none;align=center;verticalAlign=middle;whiteSpace=wrap;rounded=0;fontFamily=Carlito;fontSource=https%3A%2F%2Ffonts.googleapis.com%2Fcss%3Ffamily%3DCarlito;" vertex="1" parent="ygaP20cfCetw5Ck_P4K3-4">
          <mxGeometry x="15" y="165" width="30" height="30" as="geometry" />
        </mxCell>
        <mxCell id="ygaP20cfCetw5Ck_P4K3-97" value="I" style="text;html=1;strokeColor=none;fillColor=none;align=center;verticalAlign=middle;whiteSpace=wrap;rounded=0;fontFamily=Carlito;fontSource=https%3A%2F%2Ffonts.googleapis.com%2Fcss%3Ffamily%3DCarlito;" vertex="1" parent="ygaP20cfCetw5Ck_P4K3-4">
          <mxGeometry x="15" y="905" width="30" height="30" as="geometry" />
        </mxCell>
        <mxCell id="ygaP20cfCetw5Ck_P4K3-16" value="RM" style="swimlane;startSize=20;html=1;fontFamily=Carlito;fontSource=https%3A%2F%2Ffonts.googleapis.com%2Fcss%3Ffamily%3DCarlito;" vertex="1" parent="ygaP20cfCetw5Ck_P4K3-1">
          <mxGeometry x="180" y="20" width="60" height="1080" as="geometry" />
        </mxCell>
        <mxCell id="ygaP20cfCetw5Ck_P4K3-64" value="C" style="text;html=1;strokeColor=none;fillColor=none;align=center;verticalAlign=middle;whiteSpace=wrap;rounded=0;fontFamily=Carlito;fontSource=https%3A%2F%2Ffonts.googleapis.com%2Fcss%3Ffamily%3DCarlito;" vertex="1" parent="ygaP20cfCetw5Ck_P4K3-16">
          <mxGeometry x="15" y="165" width="30" height="30" as="geometry" />
        </mxCell>
        <mxCell id="ygaP20cfCetw5Ck_P4K3-67" value="C" style="text;html=1;strokeColor=none;fillColor=none;align=center;verticalAlign=middle;whiteSpace=wrap;rounded=0;fontFamily=Carlito;fontSource=https%3A%2F%2Ffonts.googleapis.com%2Fcss%3Ffamily%3DCarlito;" vertex="1" parent="ygaP20cfCetw5Ck_P4K3-16">
          <mxGeometry x="15" y="365" width="30" height="30" as="geometry" />
        </mxCell>
        <mxCell id="ygaP20cfCetw5Ck_P4K3-70" value="I" style="text;html=1;strokeColor=none;fillColor=none;align=center;verticalAlign=middle;whiteSpace=wrap;rounded=0;fontFamily=Carlito;fontSource=https%3A%2F%2Ffonts.googleapis.com%2Fcss%3Ffamily%3DCarlito;" vertex="1" parent="ygaP20cfCetw5Ck_P4K3-16">
          <mxGeometry x="15" y="55" width="30" height="30" as="geometry" />
        </mxCell>
        <mxCell id="ygaP20cfCetw5Ck_P4K3-77" value="C" style="text;html=1;strokeColor=none;fillColor=none;align=center;verticalAlign=middle;whiteSpace=wrap;rounded=0;fontFamily=Carlito;fontSource=https%3A%2F%2Ffonts.googleapis.com%2Fcss%3Ffamily%3DCarlito;" vertex="1" parent="ygaP20cfCetw5Ck_P4K3-16">
          <mxGeometry x="15" y="265" width="30" height="30" as="geometry" />
        </mxCell>
        <mxCell id="ygaP20cfCetw5Ck_P4K3-81" value="I" style="text;html=1;strokeColor=none;fillColor=none;align=center;verticalAlign=middle;whiteSpace=wrap;rounded=0;fontFamily=Carlito;fontSource=https%3A%2F%2Ffonts.googleapis.com%2Fcss%3Ffamily%3DCarlito;" vertex="1" parent="ygaP20cfCetw5Ck_P4K3-16">
          <mxGeometry x="15" y="485" width="30" height="30" as="geometry" />
        </mxCell>
        <mxCell id="ygaP20cfCetw5Ck_P4K3-82" value="I" style="text;html=1;strokeColor=none;fillColor=none;align=center;verticalAlign=middle;whiteSpace=wrap;rounded=0;fontFamily=Carlito;fontSource=https%3A%2F%2Ffonts.googleapis.com%2Fcss%3Ffamily%3DCarlito;" vertex="1" parent="ygaP20cfCetw5Ck_P4K3-16">
          <mxGeometry x="15" y="585" width="30" height="30" as="geometry" />
        </mxCell>
        <mxCell id="ygaP20cfCetw5Ck_P4K3-98" value="I" style="text;html=1;strokeColor=none;fillColor=none;align=center;verticalAlign=middle;whiteSpace=wrap;rounded=0;fontFamily=Carlito;fontSource=https%3A%2F%2Ffonts.googleapis.com%2Fcss%3Ffamily%3DCarlito;" vertex="1" parent="ygaP20cfCetw5Ck_P4K3-16">
          <mxGeometry x="15" y="905" width="30" height="30" as="geometry" />
        </mxCell>
        <mxCell id="ygaP20cfCetw5Ck_P4K3-17" value="SME" style="swimlane;startSize=20;html=1;fontFamily=Carlito;fontSource=https%3A%2F%2Ffonts.googleapis.com%2Fcss%3Ffamily%3DCarlito;" vertex="1" parent="ygaP20cfCetw5Ck_P4K3-1">
          <mxGeometry x="240" y="20" width="60" height="1080" as="geometry" />
        </mxCell>
        <mxCell id="ygaP20cfCetw5Ck_P4K3-52" value="R" style="text;html=1;strokeColor=none;fillColor=none;align=center;verticalAlign=middle;whiteSpace=wrap;rounded=0;fontFamily=Carlito;fontSource=https%3A%2F%2Ffonts.googleapis.com%2Fcss%3Ffamily%3DCarlito;" vertex="1" parent="ygaP20cfCetw5Ck_P4K3-17">
          <mxGeometry x="15" y="485" width="30" height="30" as="geometry" />
        </mxCell>
        <mxCell id="ygaP20cfCetw5Ck_P4K3-54" value="R" style="text;html=1;strokeColor=none;fillColor=none;align=center;verticalAlign=middle;whiteSpace=wrap;rounded=0;fontFamily=Carlito;fontSource=https%3A%2F%2Ffonts.googleapis.com%2Fcss%3Ffamily%3DCarlito;" vertex="1" parent="ygaP20cfCetw5Ck_P4K3-17">
          <mxGeometry x="15" y="585" width="30" height="30" as="geometry" />
        </mxCell>
        <mxCell id="ygaP20cfCetw5Ck_P4K3-71" value="I" style="text;html=1;strokeColor=none;fillColor=none;align=center;verticalAlign=middle;whiteSpace=wrap;rounded=0;fontFamily=Carlito;fontSource=https%3A%2F%2Ffonts.googleapis.com%2Fcss%3Ffamily%3DCarlito;" vertex="1" parent="ygaP20cfCetw5Ck_P4K3-17">
          <mxGeometry x="15" y="55" width="30" height="30" as="geometry" />
        </mxCell>
        <mxCell id="ygaP20cfCetw5Ck_P4K3-76" value="I" style="text;html=1;strokeColor=none;fillColor=none;align=center;verticalAlign=middle;whiteSpace=wrap;rounded=0;fontFamily=Carlito;fontSource=https%3A%2F%2Ffonts.googleapis.com%2Fcss%3Ffamily%3DCarlito;" vertex="1" parent="ygaP20cfCetw5Ck_P4K3-17">
          <mxGeometry x="15" y="165" width="30" height="30" as="geometry" />
        </mxCell>
        <mxCell id="ygaP20cfCetw5Ck_P4K3-78" value="I" style="text;html=1;strokeColor=none;fillColor=none;align=center;verticalAlign=middle;whiteSpace=wrap;rounded=0;fontFamily=Carlito;fontSource=https%3A%2F%2Ffonts.googleapis.com%2Fcss%3Ffamily%3DCarlito;" vertex="1" parent="ygaP20cfCetw5Ck_P4K3-17">
          <mxGeometry x="15" y="265" width="30" height="30" as="geometry" />
        </mxCell>
        <mxCell id="ygaP20cfCetw5Ck_P4K3-79" value="I" style="text;html=1;strokeColor=none;fillColor=none;align=center;verticalAlign=middle;whiteSpace=wrap;rounded=0;fontFamily=Carlito;fontSource=https%3A%2F%2Ffonts.googleapis.com%2Fcss%3Ffamily%3DCarlito;" vertex="1" parent="ygaP20cfCetw5Ck_P4K3-17">
          <mxGeometry x="15" y="365" width="30" height="30" as="geometry" />
        </mxCell>
        <mxCell id="ygaP20cfCetw5Ck_P4K3-99" value="I" style="text;html=1;strokeColor=none;fillColor=none;align=center;verticalAlign=middle;whiteSpace=wrap;rounded=0;fontFamily=Carlito;fontSource=https%3A%2F%2Ffonts.googleapis.com%2Fcss%3Ffamily%3DCarlito;" vertex="1" parent="ygaP20cfCetw5Ck_P4K3-17">
          <mxGeometry x="15" y="905" width="30" height="30" as="geometry" />
        </mxCell>
        <mxCell id="ygaP20cfCetw5Ck_P4K3-19" value="ITG" style="swimlane;startSize=20;html=1;fontFamily=Carlito;fontSource=https%3A%2F%2Ffonts.googleapis.com%2Fcss%3Ffamily%3DCarlito;" vertex="1" parent="ygaP20cfCetw5Ck_P4K3-1">
          <mxGeometry x="300" y="20" width="60" height="1080" as="geometry" />
        </mxCell>
        <mxCell id="ygaP20cfCetw5Ck_P4K3-62" value="C" style="text;html=1;strokeColor=none;fillColor=none;align=center;verticalAlign=middle;whiteSpace=wrap;rounded=0;fontFamily=Carlito;fontSource=https%3A%2F%2Ffonts.googleapis.com%2Fcss%3Ffamily%3DCarlito;" vertex="1" parent="ygaP20cfCetw5Ck_P4K3-19">
          <mxGeometry x="15" y="55" width="30" height="30" as="geometry" />
        </mxCell>
        <mxCell id="ygaP20cfCetw5Ck_P4K3-63" value="C" style="text;html=1;strokeColor=none;fillColor=none;align=center;verticalAlign=middle;whiteSpace=wrap;rounded=0;fontFamily=Carlito;fontSource=https%3A%2F%2Ffonts.googleapis.com%2Fcss%3Ffamily%3DCarlito;" vertex="1" parent="ygaP20cfCetw5Ck_P4K3-19">
          <mxGeometry x="15" y="1015" width="30" height="30" as="geometry" />
        </mxCell>
        <mxCell id="ygaP20cfCetw5Ck_P4K3-68" value="C" style="text;html=1;strokeColor=none;fillColor=none;align=center;verticalAlign=middle;whiteSpace=wrap;rounded=0;fontFamily=Carlito;fontSource=https%3A%2F%2Ffonts.googleapis.com%2Fcss%3Ffamily%3DCarlito;" vertex="1" parent="ygaP20cfCetw5Ck_P4K3-19">
          <mxGeometry x="15" y="905" width="30" height="30" as="geometry" />
        </mxCell>
        <mxCell id="ygaP20cfCetw5Ck_P4K3-72" value="C" style="text;html=1;strokeColor=none;fillColor=none;align=center;verticalAlign=middle;whiteSpace=wrap;rounded=0;fontFamily=Carlito;fontSource=https%3A%2F%2Ffonts.googleapis.com%2Fcss%3Ffamily%3DCarlito;" vertex="1" parent="ygaP20cfCetw5Ck_P4K3-19">
          <mxGeometry x="15" y="165" width="30" height="30" as="geometry" />
        </mxCell>
        <mxCell id="ygaP20cfCetw5Ck_P4K3-73" value="C" style="text;html=1;strokeColor=none;fillColor=none;align=center;verticalAlign=middle;whiteSpace=wrap;rounded=0;fontFamily=Carlito;fontSource=https%3A%2F%2Ffonts.googleapis.com%2Fcss%3Ffamily%3DCarlito;" vertex="1" parent="ygaP20cfCetw5Ck_P4K3-19">
          <mxGeometry x="15" y="265" width="30" height="30" as="geometry" />
        </mxCell>
        <mxCell id="ygaP20cfCetw5Ck_P4K3-80" value="I" style="text;html=1;strokeColor=none;fillColor=none;align=center;verticalAlign=middle;whiteSpace=wrap;rounded=0;fontFamily=Carlito;fontSource=https%3A%2F%2Ffonts.googleapis.com%2Fcss%3Ffamily%3DCarlito;" vertex="1" parent="ygaP20cfCetw5Ck_P4K3-19">
          <mxGeometry x="15" y="365" width="30" height="30" as="geometry" />
        </mxCell>
        <mxCell id="ygaP20cfCetw5Ck_P4K3-84" value="I" style="text;html=1;strokeColor=none;fillColor=none;align=center;verticalAlign=middle;whiteSpace=wrap;rounded=0;fontFamily=Carlito;fontSource=https%3A%2F%2Ffonts.googleapis.com%2Fcss%3Ffamily%3DCarlito;" vertex="1" parent="ygaP20cfCetw5Ck_P4K3-19">
          <mxGeometry x="15" y="585" width="30" height="30" as="geometry" />
        </mxCell>
      </root>
    </mxGraphModel>
  </diagram>
</mxfile>
